# xmcd
#
# Track frame offsets:
#	150
#	13352
#	24738
#	36384
#	49180
#	60514
#	70932
#	79498
#	97695
#	108858
#	120666
#	129789
#
# Disc length: 1888
#
# Revision: 3
# Processed by: cddbd v1.5.1PL0 Copyright (c) Steve Scherf et al.
# Submitted via: Audio-CD-Archiv 2.10.438
# Normalized: r1:DSETVAR1,TDELIM( - ),TSWAP
#
DISCID=9b075e0c
DTITLE=Various Artist - The Very Best Of Country And Western CD2
DYEAR=1900
DGENRE=country
TTITLE0=The Drifting Cowboys - Jambalaya
TTITLE1=Waylon Jennings - Big Mamou
TTITLE2=Willie Nelson - Touch Me
TTITLE3=George Hamilton IV - Life Is A Mountain Railway
TTITLE4=George Jones - Old Brish Arbors
TTITLE5=The Oak Ridges - I Wouldn't take nothing Foe My Vourney Now
TTITLE6=Charlie Rich - Rebound
TTITLE7=Joe Babcock - Ballad Of The Broker Arrows
TTITLE8=Kingston Trio - Tom Dooley
TTITLE9=Roy Acuff - Great Speckled Bird
TTITLE10=Thommy cash - Let's All Go Down To The River
TTITLE11=hank Snow - Last Mile Of The way
EXTD=
EXTT0=
EXTT1=
EXTT2=
EXTT3=
EXTT4=
EXTT5=
EXTT6=
EXTT7=
EXTT8=
EXTT9=
EXTT10=
EXTT11=
PLAYORDER=
